{"asset":{"generator":"Khronos glTF Blender I/O v4.1.63","version":"2.0"},"scene":0,"scenes":[{"name":"Scene","nodes":[0]}],"nodes":[{"mesh":0,"name":"Cube"}],"materials":[{"doubleSided":true,"name":"esfera","pbrMetallicRoughness":{"baseColorTexture":{"index":0},"metallicFactor":0,"roughnessFactor":0.5}}],"meshes":[{"name":"Cube.001","primitives":[{"attributes":{"POSITION":0,"NORMAL":1,"TEXCOORD_0":2},"indices":3,"material":0}]}],"textures":[{"sampler":0,"source":0}],"images":[{"mimeType":"image/png","name":"esfera","uri":"data:application/octet-stream;base64,"}],"accessors":[{"bufferView":0,"componentType":5126,"count":418,"max":[0.25005683302879333,0.25005683302879333,0.25005683302879333],"min":[-0.25005683302879333,-0.25005683302879333,-0.25005683302879333],"type":"VEC3"},{"bufferView":1,"componentType":5126,"count":418,"type":"VEC3"},{"bufferView":2,"componentType":5126,"count":418,"type":"VEC2"},{"bufferView":3,"componentType":5123,"count":2304,"type":"SCALAR"}],"bufferViews":[{"buffer":0,"byteLength":5016,"byteOffset":0,"target":34962},{"buffer":0,"byteLength":5016,"byteOffset":5016,"target":34962},{"buffer":0,"byteLength":3344,"byteOffset":10032,"target":34962},{"buffer":0,"byteLength":4608,"byteOffset":13376,"target":34963}],"samplers":[{"magFilter":9729,"minFilter":9987}],"buffers":[{"byteLength":17984,"uri":"data:application/octet-stream;base64,"}]}